<?xml version="1.0" encoding="utf-8"?>
<!-- Generator: Adobe Illustrator 19.0.0, SVG Export Plug-In . SVG Version: 6.00 Build 0)  -->
<svg version="1.1" id="Capa_1" xmlns="http://www.w3.org/2000/svg" xmlns:xlink="http://www.w3.org/1999/xlink" x="0px" y="0px"
	 viewBox="-49 141 512 512" style="enable-background:new -49 141 512 512;" xml:space="preserve">
<style type="text/css">
	.st0{fill:#D8D8D8;}
</style>
<g>
	<path class="st0" d="M231.7,167.6l57.7,117c4,8.1,11.8,13.8,20.8,15.1l129.1,18.8c22.6,3.3,31.6,31.1,15.3,47l-93.4,91.1
		c-6.5,6.3-9.5,15.5-7.9,24.4l22.1,128.6c3.9,22.5-19.8,39.7-40,29.1l-115.5-60.7c-8-4.2-17.6-4.2-25.7,0L78.7,638.6
		c-20.2,10.6-43.9-6.5-40-29.1l22.1-128.6c1.5-8.9-1.4-18.1-7.9-24.4l-93.4-91.1c-16.4-16-7.3-43.7,15.3-47l129.1-18.8
		c9-1.3,16.7-6.9,20.8-15.1l57.7-117C192.4,147.1,221.6,147.1,231.7,167.6z"/>
</g>
</svg>
